<svg width="75" height="75" xmlns="http://www.w3.org/2000/svg">
 <defs>
  <style>.cls-1{fill:#ef4438;}.cls-2{fill:#f8981d;}.cls-3{fill:#feea3a;}.cls-4{fill:#f9bf2c;}.cls-5{fill:#f37046;}.cls-6{fill:#6d6e70;}</style>
 </defs>
 <title>vietnamifylogo</title>
 <g>
  <title>background</title>
  <rect fill="none" id="canvas_background" height="77" width="77" y="-1" x="-1"/>
 </g>
 <g>
  <title>Layer 1</title>
  <path id="svg_1" d="m43.13,2.65c-0.54,-0.4 -1,-0.18 -1,0.49l0.1,45a2.73,2.73 0 0 0 1,1.94l26.53,19.62c0.54,0.4 1,0.18 1,-0.49l-0.1,-45a2.73,2.73 0 0 0 -1,-1.94l-26.53,-19.62z" class="cls-1"/>
  <path id="svg_2" d="m24.18,2.65c-0.54,-0.4 -1,-0.18 -1,0.49l0.1,45a2.73,2.73 0 0 0 1,1.94l26.53,19.62c0.54,0.4 1,0.18 1,-0.49l-0.1,-45a2.73,2.73 0 0 0 -1,-1.94l-26.53,-19.62z" class="cls-2"/>
  <path id="svg_3" d="m5.23,2.65c-0.54,-0.4 -1,-0.18 -1,0.49l0.1,45a2.73,2.73 0 0 0 1,1.94l26.52,19.62c0.54,0.4 1,0.18 1,-0.49l-0.1,-45a2.73,2.73 0 0 0 -1,-1.94l-26.52,-19.62z" class="cls-3"/>
  <path id="svg_4" d="m32.79,51.79l-0.06,-27.59a2.73,2.73 0 0 0 -1,-1.94l-8.5,-6.26l0,4.59l0.06,27.59a2.73,2.73 0 0 0 1,1.94l8.52,6.3l-0.02,-4.63z" class="cls-4"/>
  <path id="svg_5" d="m51.74,51.79l-0.05,-27.59a2.73,2.73 0 0 0 -1,-1.94l-8.5,-6.26l0,4.59l0.06,27.59a2.73,2.73 0 0 0 1,1.94l8.52,6.3l-0.03,-4.63z" class="cls-5"/>
 </g>
</svg>